PathFileType	4	(X/Y/Z)	D:\Research_projects\MuscleProsody\BulkSports2Dtrack\RetrackedSports2D\p1_sample60_cam1\p1_sample60_cam1_Sports2D\p1_sample60_cam1_Sports2D_px_person00.trc
DataRate	CameraRate	NumFrames	NumMarkers	Units	OrigDataRate	OrigDataStartFrame	OrigNumFrames
60	60	7	22	m	60	97	780
Frame#	Time	Hip			RHip			RKnee			RAnkle			RBigToe			RSmallToe			RHeel			LHip			LKnee			LAnkle			LBigToe			LSmallToe			LHeel			Neck			Head			Nose			RShoulder			RElbow			RWrist			LShoulder			LElbow			LWrist		
		X1	Y1	Z1	X2	Y2	Z2	X3	Y3	Z3	X4	Y4	Z4	X5	Y5	Z5	X6	Y6	Z6	X7	Y7	Z7	X8	Y8	Z8	X9	Y9	Z9	X10	Y10	Z10	X11	Y11	Z11	X12	Y12	Z12	X13	Y13	Z13	X14	Y14	Z14	X15	Y15	Z15	X16	Y16	Z16	X17	Y17	Z17	X18	Y18	Z18	X19	Y19	Z19	X20	Y20	Z20	X21	Y21	Z21	X22	Y22	Z22
97	1.6166666666666667	316.3735608231266	541.664523033341	0.0	291.0405730203755	540.4074908709418	0.0	284.60447808505074	672.8530015688275	0.0	272.7615195311633	804.0516155834513	0.0	315.26472087394563	843.703933479462	0.0	291.71463324870047	850.5759221723174	0.0	260.51166263887643	818.9199562544981	0.0	346.5296786826613	541.4071521565041	0.0	333.7184864533281	668.3225492240746	0.0	306.7783661550131	779.8438688566075	0.0	338.54215234872487	825.7010660631842	0.0	344.44610982808086	813.8957293030528	0.0	294.7093394293896	792.0617526094471	0.0	333.2124827842158	322.597639742932	0.0	362.0106717140546	226.20731437359157	0.0	366.4659767882022	283.5019394532425	0.0	277.3746946184571	360.3465901239472	0.0	255.0790374156359	455.05734903310594	0.0	349.5931437080622	467.92820231040525	0.0	362.3221182748804	367.6232871579498	0.0	362.4527336464925	462.4449049378486	0.0	388.67850002650704	538.7431142264038	0.0
98	1.6333333333333333	316.45463371063676	541.8667048242753	0.0	291.237347608737	541.0547163441449	0.0	284.63296646233243	673.0720957760257	0.0	272.7125249356503	803.8546900399048	0.0	315.26246437200365	843.8259119884974	0.0	291.55780913465685	850.6106652510897	0.0	260.26795952829485	819.0141761229511	0.0	346.5710248088867	541.9237058240556	0.0	333.71019752418533	668.3970570736241	0.0	306.8652569284544	779.6664547823785	0.0	338.62769540799695	825.6008768942079	0.0	344.4043180384372	813.6767626270477	0.0	294.9332087927173	791.8628410610505	0.0	333.25679095830907	322.69958186706305	0.0	361.92343697881813	226.13633317779804	0.0	366.42829943901	283.65877100934176	0.0	277.6107459480975	359.58095490202464	0.0	253.04836933683006	453.2852499738938	0.0	349.3473320716432	468.0512646248579	0.0	362.39534354082394	367.6057361691309	0.0	362.73692135279384	461.71397796416204	0.0	392.33788053249395	535.5080572847502	0.0
99	1.65	316.5191236889763	542.0963477691233	0.0	291.3868649248672	541.7509964993366	0.0	284.5998406913825	673.3518402751606	0.0	272.62435183255184	803.6261887208203	0.0	315.2445662643539	843.919427926672	0.0	291.415015164342	850.6276742332407	0.0	260.03624167287506	819.0415046917068	0.0	346.5400972395604	542.4796805623483	0.0	333.63893196076	668.5111013705364	0.0	306.9426402041992	779.5248525983436	0.0	338.7672654251027	825.4982494164464	0.0	344.3712297407409	813.4304000363276	0.0	295.1906859001285	791.6970544070209	0.0	333.29411854947926	322.7943509511528	0.0	361.8860167569474	226.08634968624915	0.0	366.42523684401687	283.854188413649	0.0	277.8476768953612	358.73238914391163	0.0	250.96646259732933	451.2452284697461	0.0	349.0099202897187	466.73165622079995	0.0	362.4527064714298	367.50089624191105	0.0	363.3050617538469	460.7332781799731	0.0	396.96440535252356	531.313926542338	0.0
100	1.6666666666666667	316.55697624356435	542.3321584028323	0.0	291.4722224124387	542.4530899322193	0.0	284.49074799860773	673.6891872233698	0.0	272.50177329480715	803.3632060152567	0.0	315.21010832076144	843.9975012888385	0.0	291.2918118502702	850.6337435379336	0.0	259.84339486039363	818.9855816933558	0.0	346.4168989530586	543.0377555235297	0.0	333.5079225557823	668.6641446425612	0.0	307.0053785141735	779.4236282775258	0.0	338.95846803675676	825.4063861300984	0.0	344.3405999460749	813.1755378297046	0.0	295.4669162638812	791.565742009506	0.0	333.31968943157847	322.88249228106076	0.0	361.88827235068493	226.05804031131728	0.0	366.44852489982253	284.0854615291602	0.0	278.07461427019484	357.82920912446275	0.0	248.85504289440016	449.00261547429494	0.0	348.5000969881252	464.1678638698424	0.0	362.4851703467146	367.2972215317869	0.0	364.2203713104755	459.4869921922142	0.0	402.58282127686965	526.0913452050456	0.0
101	1.6833333333333333	316.55907931385764	542.5429644227911	0.0	291.478226484129	543.109510436736	0.0	284.29598502024714	674.07336660346	0.0	272.35303161439793	803.0642028681704	0.0	315.166388246923	844.0737283482799	0.0	291.1958989820904	850.6355025020081	0.0	259.72027436724653	818.8312919191292	0.0	346.19492259968837	543.5484878578237	0.0	333.3245606618795	668.8505133799079	0.0	307.0493836787196	779.3624514887642	0.0	339.18719355538957	825.3394822561322	0.0	344.296308771899	812.9355542939011	0.0	295.7446128122022	791.4662188359035	0.0	333.33178987057147	322.9603422876901	0.0	361.9218763633969	226.0500544423506	0.0	366.4880861368045	284.3442846987486	0.0	278.2750494884914	356.90058798724647	0.0	246.7208091258948	446.63025867129807	0.0	347.71131156137835	460.5953327651234	0.0	362.4880420366503	366.9869401325153	0.0	365.53924598878757	457.95995732671327	0.0	409.1593057725591	519.8172276963646	0.0
102	1.7	316.5220994390356	542.6999147471664	0.0	291.39657795041177	543.673199348063	0.0	284.0121620336374	674.4944931895482	0.0	272.1856921835459	802.7329172829495	0.0	315.12326041239396	844.1560072195665	0.0	291.1320648836999	850.6340404573632	0.0	259.6957414942586	818.5679372826353	0.0	345.88614391969406	543.9657443264373	0.0	333.09799603777526	669.0643558237765	0.0	307.07133884539354	779.3407377445525	0.0	339.4350078961631	825.3066801385766	0.0	344.2221433379433	812.7317112965957	0.0	296.0077872825875	791.4007054399109	0.0	333.33208455783495	323.02084490069075	0.0	361.97606310965153	226.0574231061232	0.0	366.53014540040874	284.61593605995824	0.0	278.4274496901234	355.9789827504509	0.0	244.56487176353644	444.2108373819804	0.0	346.5084864897601	456.2743270350194	0.0	362.46514714040353	366.56702667073705	0.0	367.3054709074298	456.13447369020383	0.0	416.59367296719245	512.5208151519807	0.0
103	1.7166666666666666	316.45229941338357	542.7871088757084	0.0	291.23318130409547	544.1162674976915	0.0	283.6450684986296	674.9491597173908	0.0	272.00700517278244	802.3830112735453	0.0	315.08931364168336	844.2455666575463	0.0	291.10350304492135	850.6284815303286	0.0	259.7880422753223	818.195831291324	0.0	345.5200783976401	544.2639883390809	0.0	332.8413975630281	669.3055449000865	0.0	307.069054720503	779.3594839384457	0.0	339.68203525977543	825.3086681029529	0.0	344.10638547746214	812.5797230129276	0.0	296.24267150323226	791.3752062565791	0.0	333.32251659206196	323.054517164145	0.0	362.03483848263403	226.07337849701793	0.0	366.55578035567993	284.8823988718257	0.0	278.5100256486503	355.10199401145087	0.0	242.3922824601133	441.83883087416024	0.0	344.7337225483525	451.4789847470034	0.0	362.42951650878325	366.0422943499869	0.0	369.54780079864605	453.9928660085226	0.0	424.7178614172734	504.280551963232	0.0
